<svg xmlns="http://www.w3.org/2000/svg" xmlns:xlink="http://www.w3.org/1999/xlink" width="1366" zoomAndPan="magnify" viewBox="0 0 1024.5 576" height="768" preserveAspectRatio="xMidYMid meet" version="1.0"><defs><g/><clipPath id="5262dde907"><path d="M 289.683594 210.683594 L 419.265625 210.683594 L 419.265625 350.390625 L 289.683594 350.390625 Z M 289.683594 210.683594 " clip-rule="nonzero"/></clipPath><clipPath id="4249126f7b"><path d="M 354.472656 210.683594 C 318.691406 210.683594 289.683594 241.953125 289.683594 280.519531 C 289.683594 319.089844 318.691406 350.355469 354.472656 350.355469 C 390.257812 350.355469 419.265625 319.089844 419.265625 280.519531 C 419.265625 241.953125 390.257812 210.683594 354.472656 210.683594 Z M 354.472656 210.683594 " clip-rule="nonzero"/></clipPath><clipPath id="e91d248d43"><path d="M 359.699219 239.589844 L 410.675781 239.589844 L 410.675781 309.304688 L 359.699219 309.304688 Z M 359.699219 239.589844 " clip-rule="nonzero"/></clipPath></defs><g clip-path="url(#5262dde907)"><g clip-path="url(#4249126f7b)"><path fill="#ffffff" d="M 289.683594 210.683594 L 419.265625 210.683594 L 419.265625 350.390625 L 289.683594 350.390625 Z M 289.683594 210.683594 " fill-opacity="1" fill-rule="nonzero"/></g></g><g clip-path="url(#e91d248d43)"><path fill="#f75d34" d="M 385.328125 239.597656 L 359.699219 254.25 L 359.699219 294.761719 L 385.328125 309.410156 L 410.953125 294.761719 L 410.953125 254.25 Z M 404.78125 268.949219 L 385.328125 257.832031 L 375.601562 263.390625 L 404.78125 280.0625 L 404.78125 291.179688 L 385.328125 302.292969 L 365.875 291.179688 L 365.875 280.0625 L 385.328125 291.179688 L 395.054688 285.621094 L 365.875 268.949219 L 365.875 257.832031 L 385.328125 246.714844 L 404.78125 257.832031 Z M 404.78125 268.949219 " fill-opacity="1" fill-rule="evenodd"/></g><g fill="#000000" fill-opacity="1"><g transform="translate(412.545301, 286.59584)"><g><path d="M 13.140625 0.34375 C 10.929688 0.34375 8.984375 -0.101562 7.296875 -1 C 5.609375 -1.90625 4.285156 -3.28125 3.328125 -5.125 C 2.367188 -6.976562 1.890625 -9.285156 1.890625 -12.046875 C 1.890625 -14.804688 2.367188 -17.113281 3.328125 -18.96875 C 4.285156 -20.820312 5.609375 -22.195312 7.296875 -23.09375 C 8.984375 -24 10.929688 -24.453125 13.140625 -24.453125 C 15.347656 -24.453125 17.289062 -24.003906 18.96875 -23.109375 C 20.65625 -22.210938 21.972656 -20.832031 22.921875 -18.96875 C 23.867188 -17.113281 24.34375 -14.804688 24.34375 -12.046875 C 24.34375 -9.285156 23.867188 -6.976562 22.921875 -5.125 C 21.972656 -3.269531 20.65625 -1.894531 18.96875 -1 C 17.289062 -0.101562 15.347656 0.34375 13.140625 0.34375 Z M 13.140625 -3.796875 C 15.179688 -3.796875 16.738281 -4.453125 17.8125 -5.765625 C 18.894531 -7.078125 19.4375 -9.171875 19.4375 -12.046875 C 19.4375 -14.929688 18.894531 -17.03125 17.8125 -18.34375 C 16.738281 -19.664062 15.179688 -20.328125 13.140625 -20.328125 C 11.085938 -20.328125 9.519531 -19.664062 8.4375 -18.34375 C 7.351562 -17.03125 6.8125 -14.929688 6.8125 -12.046875 C 6.8125 -9.171875 7.351562 -7.078125 8.4375 -5.765625 C 9.519531 -4.453125 11.085938 -3.796875 13.140625 -3.796875 Z M 13.140625 -3.796875 "/></g></g></g><g fill="#000000" fill-opacity="1"><g transform="translate(443.878645, 286.59584)"><g><path d="M 3.125 0 L 3.125 -24.109375 L 7.890625 -24.109375 L 7.890625 -14.265625 L 8.421875 -14.265625 L 16.46875 -24.109375 L 21.34375 -24.109375 L 21.34375 -23.6875 L 12.484375 -12.734375 L 22.28125 -0.40625 L 22.28125 0 L 16.890625 0 L 8.421875 -10.40625 L 7.890625 -10.40625 L 7.890625 0 Z M 3.125 0 "/></g></g></g><g fill="#000000" fill-opacity="1"><g transform="translate(471.221644, 286.59584)"><g><path d="M 13.140625 0.34375 C 10.929688 0.34375 8.984375 -0.101562 7.296875 -1 C 5.609375 -1.90625 4.285156 -3.28125 3.328125 -5.125 C 2.367188 -6.976562 1.890625 -9.285156 1.890625 -12.046875 C 1.890625 -14.804688 2.367188 -17.113281 3.328125 -18.96875 C 4.285156 -20.820312 5.609375 -22.195312 7.296875 -23.09375 C 8.984375 -24 10.929688 -24.453125 13.140625 -24.453125 C 15.347656 -24.453125 17.289062 -24.003906 18.96875 -23.109375 C 20.65625 -22.210938 21.972656 -20.832031 22.921875 -18.96875 C 23.867188 -17.113281 24.34375 -14.804688 24.34375 -12.046875 C 24.34375 -9.285156 23.867188 -6.976562 22.921875 -5.125 C 21.972656 -3.269531 20.65625 -1.894531 18.96875 -1 C 17.289062 -0.101562 15.347656 0.34375 13.140625 0.34375 Z M 13.140625 -3.796875 C 15.179688 -3.796875 16.738281 -4.453125 17.8125 -5.765625 C 18.894531 -7.078125 19.4375 -9.171875 19.4375 -12.046875 C 19.4375 -14.929688 18.894531 -17.03125 17.8125 -18.34375 C 16.738281 -19.664062 15.179688 -20.328125 13.140625 -20.328125 C 11.085938 -20.328125 9.519531 -19.664062 8.4375 -18.34375 C 7.351562 -17.03125 6.8125 -14.929688 6.8125 -12.046875 C 6.8125 -9.171875 7.351562 -7.078125 8.4375 -5.765625 C 9.519531 -4.453125 11.085938 -3.796875 13.140625 -3.796875 Z M 13.140625 -3.796875 "/></g></g></g><g fill="#000000" fill-opacity="1"><g transform="translate(502.554987, 286.59584)"><g><path d="M 7.5 0 L 3.125 0 L 3.125 -24.109375 L 9.359375 -24.109375 L 15.46875 -6.375 L 15.8125 -6.375 L 21.875 -24.109375 L 27.96875 -24.109375 L 27.96875 0 L 23.4375 0 L 23.4375 -15.921875 L 23.03125 -16 L 17.453125 0 L 13.484375 0 L 7.90625 -16 L 7.5 -15.921875 Z M 7.5 0 "/></g></g></g><g fill="#000000" fill-opacity="1"><g transform="translate(538.736102, 286.59584)"><g><path d="M 23.125 0 L 18.125 0 L 16.3125 -5.5625 L 7.078125 -5.5625 L 5.265625 0 L 0.359375 0 L 8.6875 -24.109375 L 14.8125 -24.109375 Z M 11.453125 -19.078125 L 8.359375 -9.5625 L 14.984375 -9.5625 L 11.875 -19.078125 Z M 11.453125 -19.078125 "/></g></g></g><g fill="#000000" fill-opacity="1"><g transform="translate(567.299289, 286.59584)"><g><path d="M 11.703125 0.34375 C 9.691406 0.34375 7.953125 -0.113281 6.484375 -1.03125 C 5.015625 -1.945312 3.878906 -3.332031 3.078125 -5.1875 C 2.285156 -7.039062 1.890625 -9.328125 1.890625 -12.046875 C 1.890625 -14.796875 2.367188 -17.097656 3.328125 -18.953125 C 4.285156 -20.804688 5.613281 -22.1875 7.3125 -23.09375 C 9.007812 -24 10.976562 -24.453125 13.21875 -24.453125 C 15.53125 -24.453125 17.5 -24.019531 19.125 -23.15625 C 20.75 -22.300781 21.890625 -21.03125 22.546875 -19.34375 L 19.078125 -17.234375 L 18.65625 -17.25 C 18.164062 -18.320312 17.472656 -19.101562 16.578125 -19.59375 C 15.679688 -20.09375 14.5625 -20.34375 13.21875 -20.34375 C 11.144531 -20.34375 9.554688 -19.6875 8.453125 -18.375 C 7.359375 -17.0625 6.8125 -14.953125 6.8125 -12.046875 C 6.8125 -9.140625 7.320312 -7.023438 8.34375 -5.703125 C 9.375 -4.378906 10.894531 -3.71875 12.90625 -3.71875 C 14.644531 -3.71875 15.925781 -4.109375 16.75 -4.890625 C 17.570312 -5.671875 17.984375 -6.835938 17.984375 -8.390625 L 17.984375 -9.4375 L 12.28125 -9.4375 L 12.28125 -13.3125 L 22.71875 -13.3125 L 22.71875 0 L 18.171875 0 L 18.171875 -3.234375 L 17.828125 -3.28125 C 17.328125 -2.125 16.570312 -1.226562 15.5625 -0.59375 C 14.5625 0.03125 13.273438 0.34375 11.703125 0.34375 Z M 11.703125 0.34375 "/></g></g></g><g fill="#000000" fill-opacity="1"><g transform="translate(597.511378, 286.59584)"><g><path d="M 23.125 0 L 18.125 0 L 16.3125 -5.5625 L 7.078125 -5.5625 L 5.265625 0 L 0.359375 0 L 8.6875 -24.109375 L 14.8125 -24.109375 Z M 11.453125 -19.078125 L 8.359375 -9.5625 L 14.984375 -9.5625 L 11.875 -19.078125 Z M 11.453125 -19.078125 "/></g></g></g><g fill="#000000" fill-opacity="1"><g transform="translate(626.074565, 286.59584)"><g><path d="M 3.125 0 L 3.125 -24.109375 L 12.8125 -24.109375 C 15.300781 -24.109375 17.179688 -23.53125 18.453125 -22.375 C 19.722656 -21.226562 20.359375 -19.644531 20.359375 -17.625 C 20.359375 -16.164062 19.988281 -14.96875 19.25 -14.03125 C 18.507812 -13.09375 17.398438 -12.378906 15.921875 -11.890625 L 15.921875 -11.546875 C 16.679688 -11.210938 17.296875 -10.71875 17.765625 -10.0625 C 18.234375 -9.414062 18.675781 -8.457031 19.09375 -7.1875 L 21.5 0 L 16.609375 0 L 14.25 -7.203125 C 14 -7.929688 13.722656 -8.492188 13.421875 -8.890625 C 13.117188 -9.296875 12.734375 -9.585938 12.265625 -9.765625 C 11.804688 -9.953125 11.203125 -10.046875 10.453125 -10.046875 L 7.890625 -10.046875 L 7.890625 0 Z M 12.234375 -13.8125 C 14.546875 -13.8125 15.703125 -14.890625 15.703125 -17.046875 C 15.703125 -19.234375 14.546875 -20.328125 12.234375 -20.328125 L 7.890625 -20.328125 L 7.890625 -13.8125 Z M 12.234375 -13.8125 "/></g></g></g><g fill="#000000" fill-opacity="1"><g transform="translate(653.681388, 286.59584)"><g><path d="M 7.890625 0 L 3.125 0 L 3.125 -24.109375 L 7.890625 -24.109375 Z M 7.890625 0 "/></g></g></g></svg>